# xmcd
#
# Track frame offsets:
#	150
#	12255
#	35796
#	52821
#	71826
#	94949
#	110879
#	130667
#	147878
#	165833
#	185135
#	201932
#	219215
#	237339
#	254273
#	276264
#
# Disc length: 3898 seconds
#
# Revision: 0
# Processed by: cddbd v1.5.2PL0 Copyright (c) Steve Scherf et al.
# Submitted via: audiograbber 1.83.01
#
DISCID=ed0f3810
DTITLE=The Be Good Tanyas - Chinatown
DYEAR=1900
DGENRE=
TTITLE0=It's Not Happening
TTITLE1=Waiting Around To Die
TTITLE2=Junkie Song
TTITLE3=Ship Out On The Sea
TTITLE4=Dogsong 2
TTITLE5=Rowdy Blues
TTITLE6=Reuben
TTITLE7=House Of The Rising Sun
TTITLE8=In Spite Of All The Damage
TTITLE9=Lonesome Blues
TTITLE10=In My Time Of Dying
TTITLE11=I Wish My Baby Was Born
TTITLE12=Horses
TTITLE13=Midnight Moonlight
TTITLE14=Diamond In My Crown
TTITLE15=Dataspår
EXTD=
EXTT0=
EXTT1=
EXTT2=
EXTT3=
EXTT4=
EXTT5=
EXTT6=
EXTT7=
EXTT8=
EXTT9=
EXTT10=
EXTT11=
EXTT12=
EXTT13=
EXTT14=
EXTT15=
PLAYORDER=
